inDegrees=no
num_controls=7
num_derivatives=13
num_iterations=103
num_multipliers=7
num_parameters=0
num_slacks=7
num_states=26
objective=0.422183
objective_accelerations=0.069007
objective_balance=0.006584
objective_effort=0.036425
objective_height=0.308615
objective_ligament=0.001552
solver_duration=1317.335075
status=Solve_Succeeded
success=true
DataType=double
version=3
OpenSimVersion=4.5
endheader
time	/jointset/ground_pelvis/pelvis_tilt/value	/jointset/ground_pelvis/pelvis_tx/value	/jointset/ground_pelvis/pelvis_ty/value	/jointset/hip_l/hip_flexion_l/value	/jointset/hip_l/hip_adduction_l/value	/jointset/hip_l/hip_rotation_l/value	/jointset/back/lumbar_extension/value	/jointset/patellofemoral_l/patellar_flexion_l/value	/jointset/knee_l/knee_flexion_l/value	/jointset/knee_l/knee_adduction_l/value	/jointset/knee_l/knee_rotation_l/value	/jointset/ankle_l/ankle_angle_l/value	/jointset/subtalar_l/subtalar_angle_l/value	/jointset/ground_pelvis/pelvis_tilt/speed	/jointset/ground_pelvis/pelvis_tx/speed	/jointset/ground_pelvis/pelvis_ty/speed	/jointset/hip_l/hip_flexion_l/speed	/jointset/hip_l/hip_adduction_l/speed	/jointset/hip_l/hip_rotation_l/speed	/jointset/back/lumbar_extension/speed	/jointset/patellofemoral_l/patellar_flexion_l/speed	/jointset/knee_l/knee_flexion_l/speed	/jointset/knee_l/knee_adduction_l/speed	/jointset/knee_l/knee_rotation_l/speed	/jointset/ankle_l/ankle_angle_l/speed	/jointset/subtalar_l/subtalar_angle_l/speed	/forceset/tau_hip_flexion_l	/forceset/tau_hip_adduction_l	/forceset/tau_hip_rotation_l	/forceset/tau_knee_flexion_l	/forceset/tau_ankle_angle_l	/forceset/tau_subtalar_angle_l	/forceset/tau_lumbar_extension	lambda_cid13_p0	lambda_cid13_p1	lambda_cid13_p2	lambda_cid13_p3	lambda_cid13_p4	lambda_cid13_p5	lambda_cid14_p0	/jointset/ground_pelvis/pelvis_tilt/accel	/jointset/ground_pelvis/pelvis_tx/accel	/jointset/ground_pelvis/pelvis_ty/accel	/jointset/hip_l/hip_flexion_l/accel	/jointset/hip_l/hip_adduction_l/accel	/jointset/hip_l/hip_rotation_l/accel	/jointset/back/lumbar_extension/accel	/jointset/patellofemoral_l/patellar_flexion_l/accel	/jointset/knee_l/knee_flexion_l/accel	/jointset/knee_l/knee_adduction_l/accel	/jointset/knee_l/knee_rotation_l/accel	/jointset/ankle_l/ankle_angle_l/accel	/jointset/subtalar_l/subtalar_angle_l/accel	gamma_cid13_p0	gamma_cid13_p1	gamma_cid13_p2	gamma_cid13_p3	gamma_cid13_p4	gamma_cid13_p5	gamma_cid14_p0
1	-0.3935814533372526	-0.03156391206351362	0.4554378466670802	2.094394752197671	-0.2384287977338974	0.06412564654115097	-0.43632281654637	1.864622489991856	1.864622489992203	0.146816587526395	0.1744344227473863	0.4104190860328452	0.132350029686308	-0.007417242274950888	0.001535540311902034	-0.005698082104375729	0.02074914911030057	-0.0002998354912840263	-0.003216998257354431	-7.618709207620705e-06	0.01442095380634254	0.01442095380634376	0.006937532572027297	-0.0001171472890737408	0.001714844705691763	0.0002396374594041837	-0.3190088902227428	0.007395814317261359	-0.05134682620006695	-0.4644428941088777	0.02042999915091468	0.01907840537742524	0.292172270173059	-42.99125922657308	7.558769600925269	-11.1075800374134	32.36709987903956	-767.9166132528817	-50.50482140641375	-0.03361014288111349	-0.05952041809426482	-0.5842168337892027	2.584213362189085	-6.932479724536412	-0.05903756742792654	-0.8632951128651536	0.003361385813320441	-7.490497183584843	-7.490497183584299	-1.280582466496669	0.02060415056511557	-0.8223530964510448	-0.389563069660131	-4.738617816179306e-09	1.57580174307541e-08	2.220823336000806e-08	3.715124864777705e-09	4.984158149934044e-09	6.239577926357036e-08	-4.731143588029324e-09
1.01	-0.3936584642464319	-0.03157770160903588	0.45551008738093	2.094255286203925	-0.2384341756426306	0.06405471898250921	-0.4363227649628486	1.864392349364495	1.864392349364594	0.1468181773472739	0.1744338672984526	0.4103955304917644	0.1323339577688211	-0.007971620490172018	-0.004286487306001226	0.02014636390893914	-0.04865075399289422	-0.0007761736298237179	-0.01096822096075624	1.599116302665e-05	-0.06044382548685724	-0.06044382548682796	-0.006617665412320883	6.425374437413909e-06	-0.006425177903903875	-0.003453905376239093	-0.31903608374969	0.007391498279589704	-0.05131117452709502	-0.4644329607387466	0.02064102547133407	0.01909030277700084	0.2922176313679287	-42.91646035743386	7.539690335561962	-11.1036068741929	32.20385796847547	-767.9231407739237	-50.51997708406149	-0.03360934771843534	-0.05139616209961789	-0.5801541934936225	2.584577781795115	-6.945004234727471	-0.04198326960219352	-0.7309866967630125	0.001569150348030115	-7.483683444418519	-7.483683444414685	-1.392693034362961	0.00831717575285178	-0.8097111433706504	-0.3592114711592199	1.364009066535768e-08	-6.335022635570695e-08	-9.241274213419957e-08	-1.374492020666185e-08	-1.625694013310391e-08	-2.446982829960577e-07	1.584704926979103e-08
1.02	-0.3937406188655359	-0.03164950312427773	0.4558407760670914	2.093421569452844	-0.2384443271992562	0.06390628902729623	-0.4363225356081198	1.863413717915756	1.863413717915606	0.1466842742743105	0.1744345642464559	0.4102905978645561	0.1322809581068493	-0.008445984259936413	-0.01006685363201884	0.04599151235795701	-0.1181010023567471	-0.001254565069772453	-0.01871747757157068	2.793553204375616e-05	-0.1352772104692954	-0.1352772104692421	-0.02016104619503079	0.0001333320982978381	-0.01456057251977165	-0.007145911437593946	-0.3190632772766346	0.007387182241920282	-0.05127552285413467	-0.464423027368615	0.02085205179175382	0.01910220017658035	0.2922629925628014	-42.84369385693135	7.516625283112917	-11.0940389239905	32.09710118168104	-767.9332257978932	-50.54680311614572	-0.03365118514524272	-0.04351752900291696	-0.5758845754120725	2.584353849329684	-6.942548776668037	-0.05944822770973456	-0.8629018943476731	0.001028285169888938	-7.484218321432517	-7.484218321432776	-1.278219026169019	0.02127096263496902	-0.8214274977054707	-0.3892557148024446	3.31106086725666e-08	-1.417945232561313e-07	-2.056713024750496e-07	-3.487820533671421e-08	-3.762994358447262e-08	-5.482907900847278e-07	3.606333803087548e-08
1.03	-0.393826948956823	-0.0317787901362311	0.4564298597330917	2.091893271234169	-0.2384592780788874	0.0636803797133657	-0.4363222533535758	1.861687072444581	1.861687072444476	0.1464150444181254	0.1744365402162446	0.4101041521013065	0.1321909714130887	-0.008789411482394524	-0.01577253123424352	0.07181958383057391	-0.1875514352523664	-0.001735911616816414	-0.02646148188675759	2.501434138992715e-05	-0.21003066502002	-0.2100306650200074	-0.03367992310737127	0.0002603771562172493	-0.02274516061474667	-0.01085739114127806	-0.3189421406774715	0.007371966623674125	-0.05109597496093631	-0.4644080478086886	0.02152211519628297	0.01914071570628784	0.2922375567368903	-42.60115958685261	7.442667341197584	-11.06538329808459	31.73068779349275	-767.7749039722547	-50.66224179342287	-0.0337102944621129	-0.02515301941753934	-0.5652180620677525	2.581176314096903	-6.945201419129493	-0.0424793622991378	-0.7296954741634247	-0.001477476491818614	-7.467737587733575	-7.467737587739597	-1.387937046938266	0.008295825612593111	-0.8194624488052041	-0.3629159242052069	5.259226759330279e-08	-2.202320451883307e-07	-3.189159606204572e-07	-5.6048972508181e-08	-5.900429300694674e-08	-8.518475670185923e-07	5.627593389301365e-08
